<svg width="100" height="100" xmlns="http://www.w3.org/2000/svg">
 <g>
  <title>background</title>
  <rect x="-1" y="-1" width="102" height="102" id="canvas_background" fill="none"/>
 </g>

 <g>
  <title>Layer 1</title>
  <g id="svg_1">
   <path fill-rule="evenodd" clip-rule="evenodd" d="m50,0.414c23.047,0 41.73,18.683 41.73,41.73c0,23.047 -27.493,57.441 -41.73,57.441s-41.73,-34.394 -41.73,-57.44c0,-23.048 18.683,-41.731 41.73,-41.731l0,0zm29.645,42.462c-4.987,-1.626 -10.617,-1.211 -15.518,1.619c-4.899,2.828 -8.074,7.496 -9.16,12.628c4.987,1.627 10.617,1.211 15.518,-1.618s8.074,-7.497 9.16,-12.629l0,0zm-59.29,0c1.085,5.132 4.26,9.8 9.16,12.629c4.899,2.829 10.53,3.245 15.518,1.618c-1.086,-5.132 -4.261,-9.8 -9.161,-12.628c-4.899,-2.83 -10.529,-3.245 -15.517,-1.619z" id="svg_2" fill="#000000"/>
  </g>
 </g>
</svg>